HIERARCHY
ROOT Hips
{
	OFFSET 0.000000 0.000000 0.000000
	CHANNELS 6 Xposition Yposition Zposition Xrotation Yrotation Zrotation
	JOINT LeftUpLeg_virtual
	{
		OFFSET 0.000000 0.000000 0.000000
		CHANNELS 3 Xrotation Yrotation Zrotation
		JOINT LeftUpLeg
		{
			OFFSET 10.205400 -3.823500 0.155100
			CHANNELS 3 Xrotation Yrotation Zrotation
			JOINT LeftLeg
			{
				OFFSET 0.708757 -12.982077 0.567790
				CHANNELS 3 Xrotation Yrotation Zrotation
				JOINT LeftFoot
				{
					OFFSET -0.708756 -10.717838 -2.184338
					CHANNELS 3 Xrotation Yrotation Zrotation
					JOINT LeftToeBase
					{
						OFFSET 0.108149 -7.191104 7.560241
						CHANNELS 3 Xrotation Yrotation Zrotation
						JOINT LeftToe_End
						{
							OFFSET 0.070230 0.081724 4.490308
							CHANNELS 3 Xrotation Yrotation Zrotation
							End Site
							{
								OFFSET 0 0 0
							}
						}
					}
				}
			}
		}
	}
	JOINT RightUpLeg_virtual
	{
		OFFSET 0.000000 0.000000 0.000000
		CHANNELS 3 Xrotation Yrotation Zrotation
		JOINT RightUpLeg
		{
			OFFSET -10.205400 -3.823500 0.005500
			CHANNELS 3 Xrotation Yrotation Zrotation
			JOINT RightLeg
			{
				OFFSET -0.708756 -12.982134 0.610632
				CHANNELS 3 Xrotation Yrotation Zrotation
				JOINT RightFoot
				{
					OFFSET 0.708754 -10.717769 -1.945823
					CHANNELS 3 Xrotation Yrotation Zrotation
					JOINT RightToeBase
					{
						OFFSET -0.108140 -7.191069 7.372968
						CHANNELS 3 Xrotation Yrotation Zrotation
						JOINT RightToe_End
						{
							OFFSET -0.070227 0.081735 4.479403
							CHANNELS 3 Xrotation Yrotation Zrotation
							End Site
							{
								OFFSET 0 0 0
							}
						}
					}
				}
			}
		}
	}
	JOINT Spine_virtual
	{
		OFFSET 0.000000 0.000000 0.000000
		CHANNELS 3 Xrotation Yrotation Zrotation
		JOINT Spine
		{
			OFFSET 0.000000 6.876099 0.125700
			CHANNELS 3 Xrotation Yrotation Zrotation
			JOINT Spine1
			{
				OFFSET 0.000000 5.730043 0.104720
				CHANNELS 3 Xrotation Yrotation Zrotation
				JOINT Spine1_split
				{
					OFFSET 0.000000 5.730043 0.104720
					CHANNELS 3 Xrotation Yrotation Zrotation
					JOINT Spine2
					{
						OFFSET 0.000000 5.730043 0.104720
						CHANNELS 3 Xrotation Yrotation Zrotation
						JOINT Neck_virtual
						{
							OFFSET 0.000000 0.000000 0.000000
							CHANNELS 3 Xrotation Yrotation Zrotation
							JOINT Neck
							{
								OFFSET 0.000000 10.314075 0.188496
								CHANNELS 3 Xrotation Yrotation Zrotation
								JOINT Head
								{
									OFFSET 0.000000 7.643700 -2.377400
									CHANNELS 3 Xrotation Yrotation Zrotation
									JOINT HeadTop_End
									{
										OFFSET 0.000000 43.788605 -13.619600
										CHANNELS 3 Xrotation Yrotation Zrotation
										End Site
										{
											OFFSET 0 0 0
										}
									}
								}
							}
						}
						JOINT LeftShoulder_virtual
						{
							OFFSET 0.000000 0.000000 0.000000
							CHANNELS 3 Xrotation Yrotation Zrotation
							JOINT LeftShoulder
							{
								OFFSET 2.196100 4.412489 0.087492
								CHANNELS 3 Xrotation Yrotation Zrotation
								JOINT LeftShoulder_split
								{
									OFFSET 2.196100 4.412489 0.087492
									CHANNELS 3 Xrotation Yrotation Zrotation
									JOINT LeftArm
									{
										OFFSET 8.771219 -2.981674 -0.026999
										CHANNELS 3 Xrotation Yrotation Zrotation
										JOINT LeftForeArm
										{
											OFFSET 8.512804 0.000000 -0.000000
											CHANNELS 3 Xrotation Yrotation Zrotation
											JOINT LeftHand
											{
												OFFSET 18.484802 0.000000 -0.000000
												CHANNELS 3 Xrotation Yrotation Zrotation
												End Site
												{
													OFFSET 0 0 0
												}
											}
										}
									}
								}
							}
						}
						JOINT RightShoulder_virtual
						{
							OFFSET 0.000000 0.000000 0.000000
							CHANNELS 3 Xrotation Yrotation Zrotation
							JOINT RightShoulder
							{
								OFFSET -2.196100 4.412496 0.070690
								CHANNELS 3 Xrotation Yrotation Zrotation
								JOINT RightShoulder_split
								{
									OFFSET -2.196100 4.412496 0.070690
									CHANNELS 3 Xrotation Yrotation Zrotation
									JOINT RightArm
									{
										OFFSET -8.771282 -2.981682 -0.094208
										CHANNELS 3 Xrotation Yrotation Zrotation
										JOINT RightForeArm
										{
											OFFSET -8.494598 0.000000 0.000000
											CHANNELS 3 Xrotation Yrotation Zrotation
											JOINT RightHand
											{
												OFFSET -18.483803 0.000000 0.000001
												CHANNELS 3 Xrotation Yrotation Zrotation
												End Site
												{
													OFFSET 0 0 0
												}
											}
										}
									}
								}
							}
						}
					}
				}
			}
		}
	}
}
MOTION
Frames: 4
Frame Time: 0.03333333
0.131096 29.175110 0.359791 0.000000 0.000000 0.000000 -6.738816 -50.807172 -0.183422 -21.424497 12.813778 20.632159 57.665648 -1.461702 5.843512 -34.577669 -4.340441 -19.318265 -5.031036 0.589556 0.351198 0.000000 0.000000 0.000000 -7.817450 -48.631647 0.175981 -20.406684 -13.293825 -39.036642 58.620201 -4.194567 -10.904645 -33.526325 -10.064159 22.022504 -2.703778 1.150034 -0.295583 0.000000 0.000000 0.000000 -6.063111 -49.485929 -0.753163 9.914376 7.551264 -3.081328 1.337361 1.505886 -0.569770 0.531209 -1.274510 1.364272 0.000000 0.000000 0.000000 0.669412 2.142114 -0.459604 3.493887 14.185274 6.410008 6.733160 19.336499 -2.275456 0.000000 0.000000 0.000000 3.169316 1.278184 -0.131959 1.300898 3.517689 -7.189490 -5.352113 -3.940982 -3.888903 -50.436029 6.327695 -46.545441 179.440134 -72.098924 -178.124257 0.000000 0.000000 0.000000 3.146150 1.888122 -0.263595 3.891304 11.056989 -5.446030 0.522441 -4.446187 -1.786668 -49.715704 20.375038 87.058486 176.886190 72.242761 -176.780322 0.000000 0.000000 0.000000 
0.267340 28.731344 0.933973 0.000000 0.000000 0.000000 -7.724097 -52.145216 -0.887286 -23.357121 12.377408 20.318887 59.758179 -0.254424 5.110383 -33.979952 -3.965789 -19.273050 -6.340338 0.584036 0.028035 0.000000 0.000000 0.000000 -9.054270 -49.785553 -0.566603 -20.759938 -12.614893 -39.819976 60.328725 -3.529024 -10.730687 -35.657102 -10.411940 22.359270 -2.302284 0.854655 -0.307281 0.000000 0.000000 0.000000 -6.228923 -50.013107 -0.802299 10.678040 7.766104 -2.951417 1.496156 1.416160 -0.552699 0.766412 -1.147474 1.386185 0.000000 0.000000 0.000000 0.704909 2.048317 -0.526256 3.619172 14.108931 6.253815 6.816519 19.465769 -2.173510 0.000000 0.000000 0.000000 3.120031 1.250924 -0.079718 1.216576 3.247510 -7.585770 -3.318387 -5.633398 -3.333133 -52.637679 6.478314 -47.268925 176.194756 -72.241497 178.236245 0.000000 0.000000 0.000000 3.185415 1.820493 -0.289895 3.994590 11.734837 -5.412796 0.956106 -4.513756 -0.896630 -50.987249 22.524369 87.253870 177.321765 72.939276 -176.992017 0.000000 0.000000 0.000000 
0.325913 27.870123 1.692711 0.000000 0.000000 0.000000 -8.636107 -53.500643 -1.716201 -27.143827 11.862837 21.199235 65.642749 -0.517580 3.796388 -33.478722 -4.933399 -21.015234 -8.227285 0.075916 2.083939 0.000000 0.000000 0.000000 -9.870687 -50.697680 -1.247095 -20.840514 -11.036804 -40.701128 63.015558 -2.500906 -10.742677 -37.924082 -11.356146 23.347029 -1.537377 0.593971 -0.439657 0.000000 0.000000 0.000000 -6.799920 -50.978633 -1.156160 11.879511 8.286205 -2.449312 1.364249 1.324053 -0.735945 0.730905 -0.887789 1.093549 0.000000 0.000000 0.000000 0.318154 1.881450 -0.753432 3.163998 14.212774 6.104496 7.459122 19.545182 -1.883160 0.000000 0.000000 0.000000 2.795380 1.188472 -0.154854 1.063992 3.007596 -8.329381 -1.787094 -6.163659 -2.402789 -53.362649 6.276814 -47.810877 171.406958 -72.821776 173.059153 0.000000 0.000000 0.000000 2.761891 1.663673 -0.454302 4.022611 12.541754 -5.185284 0.764022 -3.886061 -0.477691 -52.005743 23.529875 86.529460 178.031176 74.054270 -177.988924 0.000000 0.000000 0.000000 
0.376574 26.763475 2.583038 0.000000 0.000000 0.000000 -9.383673 -54.708442 -2.467732 -32.452216 10.604997 23.353593 74.539275 -2.766323 2.738049 -32.529339 -6.987241 -24.805471 -8.897180 -0.671586 5.123111 0.000000 0.000000 0.000000 -10.069033 -51.416066 -1.618495 -21.027917 -8.915553 -41.805177 65.881963 -1.001285 -10.966383 -39.560425 -12.501405 24.833282 -0.768327 0.445216 -0.716458 0.000000 0.000000 0.000000 -7.599411 -52.378576 -1.710744 13.372634 8.983327 -1.696008 1.034929 1.317407 -1.083279 0.614291 -0.109000 0.785333 0.000000 0.000000 0.000000 -0.405606 1.766215 -1.066023 2.060289 14.465135 5.991320 8.340977 19.831680 -1.623211 0.000000 0.000000 0.000000 2.205328 1.147340 -0.328485 0.903595 3.049413 -9.131413 -0.557481 -5.392553 -1.194771 -51.923535 7.000073 -47.390007 167.553051 -72.727779 168.933760 0.000000 0.000000 0.000000 1.918638 1.502164 -0.751736 3.938568 13.317273 -4.962318 0.517709 -2.704830 -0.388488 -52.710452 23.170930 85.140869 179.748517 75.160344 179.542738 0.000000 0.000000 0.000000 
